<?xml version="1.0" encoding="UTF-8"?>
<svg version="1.1" xmlns="http://www.w3.org/2000/svg" width="239" height="239">
<path d="M0 0 C78.87 0 157.74 0 239 0 C239 78.87 239 157.74 239 239 C160.13 239 81.26 239 0 239 C0 160.13 0 81.26 0 0 Z " fill="#FEFEFE" transform="translate(0,0)"/>
<path d="M0 0 C1.10794922 -0.01260864 2.21589844 -0.02521729 3.35742188 -0.03820801 C4.54916016 -0.03011108 5.74089844 -0.02201416 6.96875 -0.01367188 C8.19658203 -0.01749878 9.42441406 -0.02132568 10.68945312 -0.02526855 C13.28516459 -0.02799029 15.88090336 -0.02061099 18.4765625 -0.00390625 C22.45374599 0.01749738 26.42912282 -0.0037015 30.40625 -0.02929688 C32.92708733 -0.02665365 35.44792353 -0.02152878 37.96875 -0.01367188 C39.16048828 -0.0217688 40.35222656 -0.02986572 41.58007812 -0.03820801 C43.24200195 -0.01929504 43.24200195 -0.01929504 44.9375 0 C45.91138672 0.00318237 46.88527344 0.00636475 47.88867188 0.00964355 C51.20813853 0.66314 52.40470543 1.88618146 54.46875 4.51757812 C54.92285156 7.35839844 54.92285156 7.35839844 54.859375 10.59570312 C54.84648437 11.75585938 54.83359375 12.91601562 54.8203125 14.11132812 C54.78679687 15.31789063 54.75328125 16.52445313 54.71875 17.76757812 C54.70070313 18.98960938 54.68265625 20.21164063 54.6640625 21.47070312 C54.616931 24.48711891 54.55114413 27.50195304 54.46875 30.51757812 C55.65633911 30.48615723 55.65633911 30.48615723 56.86791992 30.45410156 C60.46390018 30.37082346 64.05967736 30.31887921 67.65625 30.26757812 C68.90212891 30.2340625 70.14800781 30.20054688 71.43164062 30.16601562 C73.2347168 30.14667969 73.2347168 30.14667969 75.07421875 30.12695312 C76.73167114 30.09553223 76.73167114 30.09553223 78.42260742 30.06347656 C82.47513112 30.66760368 83.89924098 31.27256149 86.46875 34.51757812 C87.21030777 38.39040657 87.14487408 42.20992286 87.09765625 46.14257812 C87.10006821 47.28162598 87.10248016 48.42067383 87.10496521 49.59423828 C87.10398603 52.00166303 87.09057578 54.40911009 87.06567383 56.81640625 C87.03137599 60.50403231 87.04501054 64.18926171 87.06445312 67.87695312 C87.05755465 70.21550501 87.04788227 72.55405069 87.03515625 74.89257812 C87.04259605 76.54894287 87.04259605 76.54894287 87.05018616 78.23876953 C87.03434982 79.26663574 87.01851349 80.29450195 87.00219727 81.35351562 C86.99599869 82.25634277 86.98980011 83.15916992 86.9834137 84.08935547 C86.28865913 87.36726059 85.14543942 88.53747831 82.46875 90.51757812 C79.88867188 91.03224182 79.88867188 91.03224182 76.9375 91.05102539 C75.82955078 91.06686172 74.72160156 91.08269806 73.58007812 91.09901428 C72.38833984 91.09405441 71.19660156 91.08909454 69.96875 91.08398438 C68.74091797 91.09018295 67.51308594 91.09638153 66.24804688 91.10276794 C63.65235182 91.10987122 61.05661126 91.10668339 58.4609375 91.09399414 C54.48352479 91.08012963 50.50846391 91.11419597 46.53125 91.15234375 C44.01041609 91.15329491 41.48957923 91.1514363 38.96875 91.14648438 C37.18114258 91.16637169 37.18114258 91.16637169 35.35742188 91.18666077 C27.20259684 91.09441346 27.20259684 91.09441346 23.71191406 88.35058594 C22.31314235 85.16296871 22.00686697 83.03437566 22.078125 79.56054688 C22.09101562 78.44873047 22.10390625 77.33691406 22.1171875 76.19140625 C22.15070313 75.04091797 22.18421875 73.89042969 22.21875 72.70507812 C22.23679687 71.53525391 22.25484375 70.36542969 22.2734375 69.16015625 C22.3204856 66.27846032 22.38621291 63.39844015 22.46875 60.51757812 C21.22786621 60.55685425 21.22786621 60.55685425 19.96191406 60.59692383 C16.21438582 60.70084644 12.4671605 60.76589301 8.71875 60.83007812 C7.41679688 60.87197266 6.11484375 60.91386719 4.7734375 60.95703125 C3.52304688 60.97314453 2.27265625 60.98925781 0.984375 61.00585938 C-0.16772461 61.03204346 -1.31982422 61.05822754 -2.50683594 61.08520508 C-5.53125 60.51757812 -5.53125 60.51757812 -7.90527344 58.70605469 C-10.36653901 53.87960898 -10.1026767 49.35874763 -10.0625 44.01367188 C-10.0663269 42.89823502 -10.07015381 41.78279816 -10.07409668 40.63356018 C-10.07681493 38.27921647 -10.06945995 35.92484251 -10.05273438 33.57055664 C-10.03130494 29.96432341 -10.05255106 26.36007799 -10.078125 22.75390625 C-10.07548211 20.46549039 -10.07035793 18.17707577 -10.0625 15.88867188 C-10.07059692 14.80943954 -10.07869385 13.73020721 -10.08703613 12.61827087 C-10.07442749 11.61365311 -10.06181885 10.60903534 -10.04882812 9.57397461 C-10.04564575 8.69192856 -10.04246338 7.80988251 -10.03918457 6.90110779 C-8.85317301 1.33563953 -5.25473199 0.01717091 0 0 Z " fill="#FE751F" transform="translate(80.53125,73.482421875)"/>
<path d="M0 0 C1.10794922 -0.01260864 2.21589844 -0.02521729 3.35742188 -0.03820801 C4.54916016 -0.03011108 5.74089844 -0.02201416 6.96875 -0.01367188 C8.19658203 -0.01749878 9.42441406 -0.02132568 10.68945312 -0.02526855 C13.28516459 -0.02799029 15.88090336 -0.02061099 18.4765625 -0.00390625 C22.45374599 0.01749738 26.42912282 -0.0037015 30.40625 -0.02929688 C32.92708733 -0.02665365 35.44792353 -0.02152878 37.96875 -0.01367188 C39.16048828 -0.0217688 40.35222656 -0.02986572 41.58007812 -0.03820801 C43.24200195 -0.01929504 43.24200195 -0.01929504 44.9375 0 C45.91138672 0.00318237 46.88527344 0.00636475 47.88867188 0.00964355 C51.20813853 0.66314 52.40470543 1.88618146 54.46875 4.51757812 C54.92285156 7.35839844 54.92285156 7.35839844 54.859375 10.59570312 C54.84648437 11.75585938 54.83359375 12.91601562 54.8203125 14.11132812 C54.78679687 15.31789063 54.75328125 16.52445313 54.71875 17.76757812 C54.70070313 18.98960938 54.68265625 20.21164063 54.6640625 21.47070312 C54.616931 24.48711891 54.55114413 27.50195304 54.46875 30.51757812 C53.67178711 30.52692383 52.87482422 30.53626953 52.05371094 30.54589844 C48.44142825 30.59959311 44.83044179 30.68324421 41.21875 30.76757812 C39.33736328 30.78884766 39.33736328 30.78884766 37.41796875 30.81054688 C36.21269531 30.84277344 35.00742188 30.875 33.765625 30.90820312 C32.65541992 30.92915039 31.54521484 30.95009766 30.40136719 30.97167969 C26.77281809 31.64712389 25.58878903 32.51628771 23.46875 35.51757812 C22.83139134 38.30815136 22.83139134 38.30815136 22.859375 41.37695312 C22.82714844 42.49199219 22.79492188 43.60703125 22.76171875 44.75585938 C22.74753906 45.91472656 22.73335937 47.07359375 22.71875 48.26757812 C22.67427734 50.02908203 22.67427734 50.02908203 22.62890625 51.82617188 C22.55824273 54.72337634 22.50552734 57.61977767 22.46875 60.51757812 C17.88574875 60.66263806 13.30333637 60.75157493 8.71875 60.83007812 C7.41679688 60.87197266 6.11484375 60.91386719 4.7734375 60.95703125 C3.52304688 60.97314453 2.27265625 60.98925781 0.984375 61.00585938 C-0.16772461 61.03204346 -1.31982422 61.05822754 -2.50683594 61.08520508 C-5.53125 60.51757812 -5.53125 60.51757812 -7.90527344 58.70605469 C-10.36653901 53.87960898 -10.1026767 49.35874763 -10.0625 44.01367188 C-10.0663269 42.89823502 -10.07015381 41.78279816 -10.07409668 40.63356018 C-10.07681493 38.27921647 -10.06945995 35.92484251 -10.05273438 33.57055664 C-10.03130494 29.96432341 -10.05255106 26.36007799 -10.078125 22.75390625 C-10.07548211 20.46549039 -10.07035793 18.17707577 -10.0625 15.88867188 C-10.07059692 14.80943954 -10.07869385 13.73020721 -10.08703613 12.61827087 C-10.07442749 11.61365311 -10.06181885 10.60903534 -10.04882812 9.57397461 C-10.04564575 8.69192856 -10.04246338 7.80988251 -10.03918457 6.90110779 C-8.85317301 1.33563953 -5.25473199 0.01717091 0 0 Z " fill="#014AAD" transform="translate(80.53125,73.482421875)"/>
</svg>
