<?xml version="1.0" encoding="UTF-8"?>
<svg version="1.1" xmlns="http://www.w3.org/2000/svg" width="239" height="239">
<path d="M0 0 C78.87 0 157.74 0 239 0 C239 78.87 239 157.74 239 239 C160.13 239 81.26 239 0 239 C0 160.13 0 81.26 0 0 Z " fill="#FEFEFE" transform="translate(0,0)"/>
<path d="M0 0 C0.77283829 -0.00861557 1.54567657 -0.01723114 2.3419342 -0.02610779 C4.89374393 -0.04878928 7.4444573 -0.04202502 9.99633789 -0.03295898 C11.77226589 -0.03819392 13.54819111 -0.04446992 15.32411194 -0.05174255 C19.04563482 -0.06215097 22.76677544 -0.05757951 26.48828125 -0.04296875 C31.25462496 -0.02578669 36.01976255 -0.04926609 40.78597164 -0.08445835 C44.453496 -0.10643315 48.12073184 -0.10499062 51.78830147 -0.09669304 C53.54535812 -0.09587343 55.30243594 -0.1027387 57.05943108 -0.11746407 C59.5182361 -0.13491084 61.97487536 -0.12036873 64.43359375 -0.09765625 C65.15739227 -0.10934845 65.8811908 -0.12104065 66.62692261 -0.13308716 C70.37509798 -0.06274081 72.18601317 0.46347785 75.23651123 2.69891357 C77.60801654 5.98603723 77.89204739 7.50777357 77.84912109 11.51708984 C77.84874344 12.69793655 77.84836578 13.87878326 77.84797668 15.09541321 C77.82217026 16.36015976 77.79636383 17.62490631 77.76977539 18.92797852 C77.76270065 20.23047043 77.75562592 21.53296234 77.74833679 22.87492371 C77.72930927 26.32608611 77.68024853 29.77618465 77.62481689 33.22692871 C77.57353063 36.75278331 77.55080297 40.278811 77.52563477 43.80493164 C77.47212312 50.71487195 77.38686386 57.62410844 77.28149414 64.53344727 C78.44874275 64.51679268 78.44874275 64.51679268 79.63957214 64.49980164 C86.98131465 64.39952062 94.32272405 64.32344316 101.66497326 64.27438641 C105.43954424 64.24831744 109.21354828 64.21297098 112.98779297 64.15625 C116.63179895 64.10183046 120.27526045 64.07200641 123.91964149 64.05906105 C125.30834841 64.0498387 126.69702629 64.03182874 128.08550072 64.00479698 C130.03359158 63.96838656 131.98223305 63.96640388 133.93066406 63.96582031 C135.59279182 63.94916573 135.59279182 63.94916573 137.28849792 63.93217468 C141.38756354 64.75564909 142.82138413 66.1876507 145.28149414 69.53344727 C145.90968323 72.87243652 145.90968323 72.87243652 145.91259766 76.72290039 C145.92333061 77.77996437 145.92333061 77.77996437 145.9342804 78.85838318 C145.95112989 81.17782276 145.93178994 83.49531899 145.91040039 85.81469727 C145.91122945 87.4322526 145.91369023 89.04980785 145.91770935 90.6673584 C145.92056475 94.05348136 145.90589227 97.43894191 145.87841797 100.82495117 C145.84433487 105.15960891 145.85035542 109.49308251 145.86908054 113.82779694 C145.8796625 117.16678694 145.87070201 120.50550265 145.85569572 123.84446716 C145.85052218 125.44241012 145.85098567 127.04038183 145.85724068 128.63832092 C145.86270769 130.87416914 145.84227389 133.10833752 145.81494141 135.34399414 C145.80564354 137.24997375 145.80564354 137.24997375 145.79615784 139.19445801 C145.1941013 143.10042674 144.03415183 144.75249571 141.28149414 147.53344727 C138.27780837 149.03529015 135.17781016 148.70691611 131.88183594 148.72631836 C131.11904327 148.73449585 130.35625061 148.74267334 129.57034302 148.75109863 C127.04047433 148.77595558 124.51066175 148.79246927 121.98071289 148.80688477 C120.6854666 148.81487028 120.6854666 148.81487028 119.36405373 148.82301712 C114.79365552 148.84974992 110.22328464 148.86912445 105.65283203 148.88354492 C100.93139728 148.900194 96.2106604 148.94497311 91.48948956 148.99591637 C87.8597788 149.02956759 84.23023414 149.04111997 80.60038185 149.046772 C78.86003091 149.05349032 77.11969112 149.06872754 75.37949181 149.09266281 C72.94219423 149.12427357 70.50678457 149.12435814 68.06933594 149.11694336 C67.35174606 149.13334869 66.63415619 149.14975403 65.89482117 149.16665649 C62.15029859 149.12007554 60.37565616 148.60262602 57.33023071 146.36521912 C54.97084162 143.10406211 54.67052816 141.62012404 54.71386719 137.64160156 C54.71424484 136.4807756 54.7146225 135.31994965 54.7150116 134.12394714 C54.74081802 132.88107437 54.76662445 131.6382016 54.79321289 130.35766602 C54.80028763 129.07737015 54.80736237 127.79707428 54.81465149 126.47798157 C54.833677 123.08599415 54.88273576 119.69508952 54.93817139 116.30352783 C54.98946215 112.83799892 55.01218625 109.37229379 55.03735352 105.90649414 C55.09246004 99.1150104 55.17611768 92.32432697 55.28149414 85.53344727 C54.13303764 85.55010185 54.13303764 85.55010185 52.96138 85.5670929 C45.73736762 85.66737943 38.51369388 85.74345408 31.28916645 85.79250813 C27.57512471 85.81857568 23.86165928 85.85391936 20.14794922 85.91064453 C16.56229701 85.96506941 12.97719823 85.99488919 9.39116478 86.00783348 C8.02478512 86.01705491 6.65843495 86.03506308 5.29229164 86.06209755 C3.37533874 86.09851485 1.45782604 86.10049071 -0.45947266 86.10107422 C-2.09495308 86.11772881 -2.09495308 86.11772881 -3.76347351 86.13471985 C-7.84470931 85.30429402 -9.27258588 83.87178718 -11.71850586 80.53344727 C-12.209907 77.82716612 -12.39555538 75.75001434 -12.34960938 73.05273438 C-12.35676468 72.31715805 -12.36391998 71.58158173 -12.37129211 70.82371521 C-12.3881457 68.40210093 -12.36880049 65.98234663 -12.34741211 63.56079102 C-12.34824104 61.87357938 -12.35070133 60.18636782 -12.35472107 58.49916077 C-12.35757664 54.96761696 -12.34290049 51.43670825 -12.31542969 47.90527344 C-12.28132059 43.37996282 -12.28737576 38.85578564 -12.30609226 34.33042049 C-12.31666252 30.84821635 -12.30772476 27.36627578 -12.29270744 23.88409615 C-12.28752708 22.21554917 -12.28800568 20.54697465 -12.2942524 18.87843132 C-12.29970621 16.54660744 -12.27932808 14.21640471 -12.25195312 11.88476562 C-12.258479 11.19634583 -12.26500488 10.50792603 -12.27172852 9.79864502 C-12.20956703 6.6831175 -11.85661566 4.74949163 -10.16757202 2.10733032 C-6.82338322 -0.0417999 -3.85156138 -0.03462942 0 0 Z " fill="#FE7520" transform="translate(52.718505859375,44.466552734375)"/>
<path d="M0 0 C0.77283829 -0.00861557 1.54567657 -0.01723114 2.3419342 -0.02610779 C4.89374393 -0.04878928 7.4444573 -0.04202502 9.99633789 -0.03295898 C11.77226589 -0.03819392 13.54819111 -0.04446992 15.32411194 -0.05174255 C19.04563482 -0.06215097 22.76677544 -0.05757951 26.48828125 -0.04296875 C31.25462496 -0.02578669 36.01976255 -0.04926609 40.78597164 -0.08445835 C44.453496 -0.10643315 48.12073184 -0.10499062 51.78830147 -0.09669304 C53.54535812 -0.09587343 55.30243594 -0.1027387 57.05943108 -0.11746407 C59.5182361 -0.13491084 61.97487536 -0.12036873 64.43359375 -0.09765625 C65.15739227 -0.10934845 65.8811908 -0.12104065 66.62692261 -0.13308716 C70.37509798 -0.06274081 72.18601317 0.46347785 75.23651123 2.69891357 C77.60801654 5.98603723 77.89204739 7.50777357 77.84912109 11.51708984 C77.84874344 12.69793655 77.84836578 13.87878326 77.84797668 15.09541321 C77.82217026 16.36015976 77.79636383 17.62490631 77.76977539 18.92797852 C77.76270065 20.23047043 77.75562592 21.53296234 77.74833679 22.87492371 C77.72930927 26.32608611 77.68024853 29.77618465 77.62481689 33.22692871 C77.57353063 36.75278331 77.55080297 40.278811 77.52563477 43.80493164 C77.47212312 50.71487195 77.38686386 57.62410844 77.28149414 64.53344727 C76.01692383 64.57083008 74.75235352 64.60821289 73.44946289 64.64672852 C71.78927684 64.71238559 70.12912192 64.77883302 68.46899414 64.84594727 C67.63561523 64.86850586 66.80223633 64.89106445 65.94360352 64.91430664 C65.14116211 64.94975586 64.3387207 64.98520508 63.51196289 65.02172852 C62.77357178 65.0479126 62.03518066 65.07409668 61.27441406 65.10107422 C58.72204666 65.65482194 57.82357809 66.44248598 56.28149414 68.53344727 C55.78326318 70.45310375 55.78326318 70.45310375 55.76977539 72.54516602 C55.71660156 73.68115234 55.71660156 73.68115234 55.66235352 74.84008789 C55.63979492 75.62577148 55.61723633 76.41145508 55.59399414 77.22094727 C55.55983398 78.01823242 55.52567383 78.81551758 55.49047852 79.63696289 C55.4081131 81.60196631 55.34312347 83.56768423 55.28149414 85.53344727 C47.28414524 85.64942253 39.28714905 85.73820237 31.28916645 85.79250813 C27.57512471 85.81857568 23.86165928 85.85391936 20.14794922 85.91064453 C16.56229701 85.96506941 12.97719823 85.99488919 9.39116478 86.00783348 C8.02478512 86.01705491 6.65843495 86.03506308 5.29229164 86.06209755 C3.37533874 86.09851485 1.45782604 86.10049071 -0.45947266 86.10107422 C-2.09495308 86.11772881 -2.09495308 86.11772881 -3.76347351 86.13471985 C-7.84470931 85.30429402 -9.27258588 83.87178718 -11.71850586 80.53344727 C-12.209907 77.82716612 -12.39555538 75.75001434 -12.34960938 73.05273438 C-12.35676468 72.31715805 -12.36391998 71.58158173 -12.37129211 70.82371521 C-12.3881457 68.40210093 -12.36880049 65.98234663 -12.34741211 63.56079102 C-12.34824104 61.87357938 -12.35070133 60.18636782 -12.35472107 58.49916077 C-12.35757664 54.96761696 -12.34290049 51.43670825 -12.31542969 47.90527344 C-12.28132059 43.37996282 -12.28737576 38.85578564 -12.30609226 34.33042049 C-12.31666252 30.84821635 -12.30772476 27.36627578 -12.29270744 23.88409615 C-12.28752708 22.21554917 -12.28800568 20.54697465 -12.2942524 18.87843132 C-12.29970621 16.54660744 -12.27932808 14.21640471 -12.25195312 11.88476562 C-12.258479 11.19634583 -12.26500488 10.50792603 -12.27172852 9.79864502 C-12.20956703 6.6831175 -11.85661566 4.74949163 -10.16757202 2.10733032 C-6.82338322 -0.0417999 -3.85156138 -0.03462942 0 0 Z " fill="#034BAD" transform="translate(52.718505859375,44.466552734375)"/>
<path d="M0 0 C8.08573751 -0.60341325 8.08573751 -0.60341325 12.125 2.0625 C14 5 14 5 14 8.625 C13.01382604 11.95333711 12.69520353 13.00997167 10 15 C7.51953125 15.29296875 7.51953125 15.29296875 4.8125 15.1875 C3.224375 15.125625 1.63625 15.06375 0 15 C0 10.05 0 5.1 0 0 Z " fill="#FFF5EE" transform="translate(154,143)"/>
<path d="M0 0 C1.60875 -0.04125 3.2175 -0.0825 4.875 -0.125 C5.77992187 -0.14820312 6.68484375 -0.17140625 7.6171875 -0.1953125 C10 0 10 0 12 2 C12.265625 4.53125 12.265625 4.53125 12.25 7.5 C12.25515625 8.4796875 12.2603125 9.459375 12.265625 10.46875 C12 13 12 13 10 15 C7.6171875 15.1953125 7.6171875 15.1953125 4.875 15.125 C2.461875 15.063125 2.461875 15.063125 0 15 C0 10.05 0 5.1 0 0 Z " fill="#EFF3F9" transform="translate(72,80)"/>
<path d="M0 0 C0.99 0 1.98 0 3 0 C4.03544174 1.90881434 5.05290085 3.82739204 6.0625 5.75 C6.63097656 6.81734375 7.19945312 7.8846875 7.78515625 8.984375 C9.01044806 12.02593537 9.25348607 13.04893565 8 16 C7.01 15.67 6.02 15.34 5 15 C4.67 14.34 4.34 13.68 4 13 C0.97065509 12.34227572 0.97065509 12.34227572 -2 12 C-2.33 13.32 -2.66 14.64 -3 16 C-3.99 15.67 -4.98 15.34 -6 15 C-5.54979057 9.14727744 -2.96160773 4.91779881 0 0 Z " fill="#FFF1E9" transform="translate(144,143)"/>
<path d="M0 0 C0.66 0.33 1.32 0.66 2 1 C1.67 2.32 1.34 3.64 1 5 C-1.31 5 -3.62 5 -6 5 C-6.33 6.65 -6.66 8.3 -7 10 C-6.2575 10.144375 -5.515 10.28875 -4.75 10.4375 C-2.47972261 10.90187492 -0.24240521 11.41863569 2 12 C1.67 12.99 1.34 13.98 1 15 C-2.99582254 15.94019354 -5.18969194 16.39653373 -8.9375 14.5625 C-11.42152942 11.47628163 -11.68849662 9.77721542 -11.4140625 5.90625 C-11 4 -11 4 -9.4375 1.5 C-6.14360153 -0.52701444 -3.79877599 -0.35173852 0 0 Z " fill="#E6EDF7" transform="translate(97,80)"/>
<path d="M0 0 C2.475 0.495 2.475 0.495 5 1 C5.625 3.375 5.625 3.375 6 6 C5.34 6.66 4.68 7.32 4 8 C2.68 8 1.36 8 0 8 C0 5.36 0 2.72 0 0 Z " fill="#FF7C2C" transform="translate(158,147)"/>
<path d="M0 0 C1.32 0 2.64 0 4 0 C4 0.66 4 1.32 4 2 C3.34 2 2.68 2 2 2 C2 2.99 2 3.98 2 5 C2.99 5 3.98 5 5 5 C4.67 5.99 4.34 6.98 4 8 C2.68 8 1.36 8 0 8 C0 5.36 0 2.72 0 0 Z " fill="#225DB6" transform="translate(76,84)"/>
</svg>
