<?xml version="1.0" encoding="UTF-8"?>
<svg version="1.1" xmlns="http://www.w3.org/2000/svg" width="239" height="239">
<path d="M0 0 C78.87 0 157.74 0 239 0 C239 78.87 239 157.74 239 239 C160.13 239 81.26 239 0 239 C0 160.13 0 81.26 0 0 Z " fill="#FEFEFE" transform="translate(0,0)"/>
<path d="M0 0 C1.10794922 -0.01260864 2.21589844 -0.02521729 3.35742188 -0.03820801 C4.54916016 -0.03011108 5.74089844 -0.02201416 6.96875 -0.01367188 C8.19658203 -0.01749878 9.42441406 -0.02132568 10.68945312 -0.02526855 C13.28516459 -0.02799029 15.88090336 -0.02061099 18.4765625 -0.00390625 C22.45374599 0.01749738 26.42912282 -0.0037015 30.40625 -0.02929688 C32.92708733 -0.02665365 35.44792353 -0.02152878 37.96875 -0.01367188 C39.16048828 -0.0217688 40.35222656 -0.02986572 41.58007812 -0.03820801 C43.24200195 -0.01929504 43.24200195 -0.01929504 44.9375 0 C45.91138672 0.00318237 46.88527344 0.00636475 47.88867188 0.00964355 C51.24227286 0.66985995 52.42848807 1.81215336 54.46875 4.51757812 C54.94976807 6.55511475 54.94976807 6.55511475 54.92285156 8.73535156 C54.92254944 9.55590027 54.92224731 10.37644897 54.92193604 11.22186279 C54.90129089 12.0980426 54.88064575 12.97422241 54.859375 13.87695312 C54.85371521 14.78133118 54.84805542 15.68570923 54.84222412 16.61749268 C54.81986248 19.50139665 54.76966686 22.38405074 54.71875 25.26757812 C54.69868471 27.22459141 54.68043399 29.1816242 54.6640625 31.13867188 C54.61999839 35.93212102 54.55097252 40.72463778 54.46875 45.51757812 C55.74516357 45.49663086 57.02157715 45.47568359 58.33666992 45.45410156 C63.07955677 45.38161382 67.8223948 45.33574626 72.56567383 45.29785156 C74.61718993 45.27775614 76.66864889 45.25047488 78.7199707 45.21582031 C81.67153025 45.16721144 84.62233148 45.1445886 87.57421875 45.12695312 C88.48898483 45.10630798 89.40375092 45.08566284 90.34623718 45.06439209 C94.20466395 45.06303741 96.96484396 45.30466853 100.5456543 46.81762695 C103.694467 51.23843687 103.18146026 55.81490842 103.1328125 61.10742188 C103.13759613 62.24409805 103.14237976 63.38077423 103.14730835 64.55189514 C103.15070995 66.95510237 103.14148958 69.35835571 103.12060547 71.76147461 C103.09387134 75.43838911 103.12033501 79.11224372 103.15234375 82.7890625 C103.14903922 85.1243557 103.14263209 87.45964699 103.1328125 89.79492188 C103.14799423 91.44354469 103.14799423 91.44354469 103.16348267 93.12547302 C103.09360766 97.68214955 102.92964034 100.69871835 100.67138672 104.7109375 C95.73986013 107.49286285 91.13393147 107.21256594 85.5625 107.14648438 C83.82631409 107.15010231 83.82631409 107.15010231 82.05505371 107.15379333 C79.61072357 107.15281493 77.16637126 107.13942312 74.72216797 107.11450195 C70.98198119 107.08019947 67.24415762 107.09384434 63.50390625 107.11328125 C61.12759411 107.10638268 58.75128807 107.09671021 56.375 107.08398438 C55.2571814 107.08894424 54.13936279 107.09390411 52.9876709 107.09901428 C45.24151194 106.98157921 45.24151194 106.98157921 41.28710938 104.60717773 C37.75593256 100.54926388 38.34041002 96.71246325 38.37109375 91.57226562 C38.3725087 90.68725372 38.37392365 89.80224182 38.37538147 88.89041138 C38.3809886 86.05776622 38.39354229 83.22519948 38.40625 80.39257812 C38.41126408 78.47461051 38.41582715 76.55664167 38.41992188 74.63867188 C38.43096034 69.93161031 38.44822975 65.22460752 38.46875 60.51757812 C37.15680664 60.54376221 35.84486328 60.56994629 34.49316406 60.59692383 C29.62549902 60.68742659 24.7579083 60.74482806 19.88964844 60.79223633 C17.78275039 60.81738025 15.67593957 60.8515002 13.56933594 60.89477539 C10.5407968 60.95543181 7.5134107 60.98378895 4.484375 61.00585938 C3.54257385 61.0316658 2.60077271 61.05747223 1.63043213 61.08406067 C-2.40858104 61.08579282 -4.76210824 61.05496342 -8.12402344 58.70605469 C-10.26855211 53.84700811 -10.1020094 49.2699703 -10.0625 44.01367188 C-10.0663269 42.89823502 -10.07015381 41.78279816 -10.07409668 40.63356018 C-10.07681493 38.27921647 -10.06945995 35.92484251 -10.05273438 33.57055664 C-10.03130494 29.96432341 -10.05255106 26.36007799 -10.078125 22.75390625 C-10.07548211 20.46549039 -10.07035793 18.17707577 -10.0625 15.88867188 C-10.07059692 14.80943954 -10.07869385 13.73020721 -10.08703613 12.61827087 C-10.07442749 11.61365311 -10.06181885 10.60903534 -10.04882812 9.57397461 C-10.04564575 8.69192856 -10.04246338 7.80988251 -10.03918457 6.90110779 C-8.85317301 1.33563953 -5.25473199 0.01717091 0 0 Z " fill="#FE7621" transform="translate(80.53125,73.482421875)"/>
<path d="M0 0 C1.10794922 -0.01260864 2.21589844 -0.02521729 3.35742188 -0.03820801 C4.54916016 -0.03011108 5.74089844 -0.02201416 6.96875 -0.01367188 C8.19658203 -0.01749878 9.42441406 -0.02132568 10.68945312 -0.02526855 C13.28516459 -0.02799029 15.88090336 -0.02061099 18.4765625 -0.00390625 C22.45374599 0.01749738 26.42912282 -0.0037015 30.40625 -0.02929688 C32.92708733 -0.02665365 35.44792353 -0.02152878 37.96875 -0.01367188 C39.16048828 -0.0217688 40.35222656 -0.02986572 41.58007812 -0.03820801 C43.24200195 -0.01929504 43.24200195 -0.01929504 44.9375 0 C45.91138672 0.00318237 46.88527344 0.00636475 47.88867188 0.00964355 C51.24227286 0.66985995 52.42848807 1.81215336 54.46875 4.51757812 C54.94976807 6.55511475 54.94976807 6.55511475 54.92285156 8.73535156 C54.92254944 9.55590027 54.92224731 10.37644897 54.92193604 11.22186279 C54.90129089 12.0980426 54.88064575 12.97422241 54.859375 13.87695312 C54.85371521 14.78133118 54.84805542 15.68570923 54.84222412 16.61749268 C54.81986248 19.50139665 54.76966686 22.38405074 54.71875 25.26757812 C54.69868471 27.22459141 54.68043399 29.1816242 54.6640625 31.13867188 C54.61999839 35.93212102 54.55097252 40.72463778 54.46875 45.51757812 C53.7051416 45.57308838 52.9415332 45.62859863 52.15478516 45.68579102 C50.65890869 45.80555298 50.65890869 45.80555298 49.1328125 45.92773438 C48.1423291 46.00386963 47.1518457 46.08000488 46.13134766 46.15844727 C43.36717159 46.36917558 43.36717159 46.36917558 40.84375 47.95507812 C39.34845984 50.74175524 39.15004838 52.55409984 38.8828125 55.67773438 C38.80240723 56.58273682 38.72200195 57.48773926 38.63916016 58.42016602 C38.5829248 59.11231201 38.52668945 59.80445801 38.46875 60.51757812 C32.2757903 60.64117871 26.08354841 60.73191867 19.88964844 60.79223633 C17.78275039 60.81738025 15.67593957 60.8515002 13.56933594 60.89477539 C10.5407968 60.95543181 7.5134107 60.98378895 4.484375 61.00585938 C3.54257385 61.0316658 2.60077271 61.05747223 1.63043213 61.08406067 C-2.40858104 61.08579282 -4.76210824 61.05496342 -8.12402344 58.70605469 C-10.26855211 53.84700811 -10.1020094 49.2699703 -10.0625 44.01367188 C-10.0663269 42.89823502 -10.07015381 41.78279816 -10.07409668 40.63356018 C-10.07681493 38.27921647 -10.06945995 35.92484251 -10.05273438 33.57055664 C-10.03130494 29.96432341 -10.05255106 26.36007799 -10.078125 22.75390625 C-10.07548211 20.46549039 -10.07035793 18.17707577 -10.0625 15.88867188 C-10.07059692 14.80943954 -10.07869385 13.73020721 -10.08703613 12.61827087 C-10.07442749 11.61365311 -10.06181885 10.60903534 -10.04882812 9.57397461 C-10.04564575 8.69192856 -10.04246338 7.80988251 -10.03918457 6.90110779 C-8.85317301 1.33563953 -5.25473199 0.01717091 0 0 Z " fill="#024BAD" transform="translate(80.53125,73.482421875)"/>
<path d="M0 0 C8 0 8 0 11 1.5 C13.42337538 4.52921922 13.74638885 6.28777833 13.4765625 10.09375 C13 12 13 12 11 14.5 C8 16 8 16 0 16 C0 10.72 0 5.44 0 0 Z " fill="#FFF1E9" transform="translate(153,140)"/>
<path d="M0 0 C1.423125 -0.061875 2.84625 -0.12375 4.3125 -0.1875 C5.51326172 -0.23970703 5.51326172 -0.23970703 6.73828125 -0.29296875 C9 0 9 0 10.7734375 1.1953125 C12.40202972 3.59152144 12.36757744 5.1857629 12.3125 8.0625 C12.30863281 8.94035156 12.30476563 9.81820312 12.30078125 10.72265625 C12 13 12 13 10 15 C7.6171875 15.1953125 7.6171875 15.1953125 4.875 15.125 C2.461875 15.063125 2.461875 15.063125 0 15 C0 10.05 0 5.1 0 0 Z " fill="#F2F6FB" transform="translate(90,95)"/>
<path d="M0 0 C3 1 3 1 4.38671875 3.36328125 C4.81597656 4.33652344 5.24523437 5.30976563 5.6875 6.3125 C6.34298828 7.76076172 6.34298828 7.76076172 7.01171875 9.23828125 C8 12 8 12 8 16 C7.01 16 6.02 16 5 16 C4.67 15.34 4.34 14.68 4 14 C1.67843403 13.59270772 -0.6568787 13.25561323 -3 13 C-3.33 13.99 -3.66 14.98 -4 16 C-4.99 15.67 -5.98 15.34 -7 15 C-3.57142857 3.57142857 -3.57142857 3.57142857 0 0 Z " fill="#FFF0E7" transform="translate(143,140)"/>
<path d="M0 0 C0.33 1.32 0.66 2.64 1 4 C-1.46278801 5.231394 -3.2795055 5.07159196 -6 5 C-6.33 6.65 -6.66 8.3 -7 10 C-4.23735711 10.59732819 -1.83967231 11 1 11 C0.67 12.32 0.34 13.64 0 15 C-3.70231104 16.03320308 -5.36007375 16.341294 -8.8125 14.5 C-11.67311337 11.23072758 -12.1519185 9.32967714 -12 5 C-8.59817433 0.00356855 -5.8719473 -0.57568111 0 0 Z " fill="#EAF0F8" transform="translate(115,95)"/>
<path d="M0 0 C3.875 0.875 3.875 0.875 5 2 C5.04063832 3.66617115 5.042721 5.33388095 5 7 C3.35 7.33 1.7 7.66 0 8 C0 5.36 0 2.72 0 0 Z " fill="#FF7621" transform="translate(157,144)"/>
<path d="M0 0 C1.65 0 3.3 0 5 0 C5 0.66 5 1.32 5 2 C4.01 2 3.02 2 2 2 C2 2.99 2 3.98 2 5 C2.99 5 3.98 5 5 5 C5 5.99 5 6.98 5 8 C3.35 8 1.7 8 0 8 C0 5.36 0 2.72 0 0 Z " fill="#366ABB" transform="translate(93,99)"/>
</svg>
